ply
format ascii 1.0
comment Created by Blender 2.78 (sub 0) - www.blender.org, source file: 'synthetic2.blend'
element vertex 580
property float x
property float y
property float z
property float nx
property float ny
property float nz
element face 278
property list uchar uint vertex_indices
end_header
-2.624665 5.394408 0.000012 -0.000000 -0.000000 1.000000
-4.000074 7.999961 0.000012 -0.000000 -0.000000 1.000000
-0.500073 0.012092 0.000012 -0.000000 -0.000000 1.000000
-4.000073 0.012092 0.000012 -0.000000 0.000000 1.000000
-4.000073 -0.125994 0.000012 -0.000000 0.000000 1.000000
3.999927 -0.125994 0.000012 0.000000 -0.000000 1.000000
3.999927 0.035920 0.000012 0.000000 -0.000000 1.000000
0.794362 0.035920 0.000012 0.000000 -0.000014 1.000000
0.794362 0.999006 0.000026 0.000000 -0.000014 1.000000
-0.202007 0.999006 0.000026 0.000000 -0.000014 1.000000
0.794362 0.035920 0.000012 -0.000000 -0.000000 1.000000
-2.551882 5.401338 0.000012 -0.000001 -0.000000 1.000000
-2.624665 5.394408 0.000012 -0.000001 -0.000000 1.000000
-0.500073 0.012092 0.000012 -0.000001 -0.000000 1.000000
-0.500073 0.012092 0.000012 -0.000000 0.000002 1.000000
-4.000073 -0.125994 0.000012 -0.000000 0.000002 1.000000
0.794362 0.035920 0.000012 -0.000000 0.000002 1.000000
-0.500073 0.012092 0.000012 0.000000 -0.000014 1.000000
-2.505153 5.411294 0.000012 0.000000 -0.000000 1.000000
-2.551882 5.401338 0.000012 0.000000 -0.000000 1.000000
-2.410151 5.426791 0.000012 0.000000 0.000000 1.000000
-2.457901 5.419786 0.000012 0.000000 0.000000 1.000000
-2.313251 5.436234 0.000012 0.000000 0.000000 1.000000
-2.361926 5.432281 0.000012 0.000000 0.000000 1.000000
-2.214652 5.439425 0.000012 0.000000 0.000000 1.000000
-2.264151 5.438623 0.000012 0.000000 0.000000 1.000000
-2.116053 5.436234 0.000012 0.000000 0.000000 1.000000
-2.165153 5.438623 0.000012 0.000000 0.000000 1.000000
-2.019153 5.426791 0.000012 0.000000 0.000000 1.000000
-2.067379 5.432281 0.000012 0.000000 0.000000 1.000000
-1.924150 5.411294 0.000012 0.000000 0.000000 1.000000
-1.971402 5.419787 0.000012 0.000000 0.000000 1.000000
-1.831243 5.389942 0.000012 0.000000 0.000000 1.000000
-1.877422 5.401338 0.000012 0.000000 0.000000 1.000000
-1.740628 5.362932 0.000012 0.000000 0.000000 1.000000
-1.785636 5.377131 0.000012 0.000000 0.000000 1.000000
-1.652504 5.330462 0.000012 0.000000 0.000000 1.000000
-1.696242 5.347367 0.000012 0.000000 0.000000 1.000000
-1.567069 5.292730 0.000012 0.000000 0.000000 1.000000
-1.609438 5.312242 0.000012 0.000000 0.000000 1.000000
-1.484520 5.249935 0.000012 0.000000 0.000000 1.000000
-1.525421 5.271953 0.000012 0.000000 0.000000 1.000000
-1.405056 5.202273 0.000012 0.000000 0.000000 1.000000
-1.444390 5.226700 0.000012 0.000000 0.000000 1.000000
-1.328875 5.149944 0.000012 0.000000 0.000000 1.000000
-1.366543 5.176680 0.000012 0.000000 0.000000 1.000000
-1.256174 5.093144 0.000012 0.000000 0.000000 1.000000
-1.292077 5.122090 0.000012 0.000000 0.000000 1.000000
-1.187152 5.032073 0.000012 0.000000 0.000000 1.000000
-1.221191 5.063130 0.000012 0.000000 0.000000 1.000000
-1.122005 4.966927 0.000012 0.000000 0.000000 1.000000
-1.154082 4.999996 0.000012 0.000000 0.000000 1.000000
-1.060933 4.897904 0.000012 0.000000 0.000000 1.000000
-1.090948 4.932887 0.000012 0.000000 0.000000 1.000000
-1.004134 4.825203 0.000012 0.000000 0.000000 1.000000
-1.031987 4.862001 0.000012 0.000000 0.000000 1.000000
-0.951804 4.749022 0.000012 0.000000 0.000000 1.000000
-0.977398 4.787535 0.000012 0.000000 0.000000 1.000000
-0.904143 4.669558 0.000012 0.000000 0.000000 1.000000
-0.927378 4.709688 0.000012 0.000000 0.000000 1.000000
-0.861347 4.587009 0.000012 0.000000 0.000000 1.000000
-0.882124 4.628656 0.000012 0.000000 0.000000 1.000000
-0.823615 4.501574 0.000012 0.000000 0.000000 1.000000
-0.841836 4.544640 0.000012 0.000000 0.000000 1.000000
-0.791146 4.413450 0.000012 0.000000 0.000000 1.000000
-0.806710 4.457836 0.000012 0.000000 0.000000 1.000000
-0.764136 4.322835 0.000012 0.000000 0.000000 1.000000
-0.776946 4.368442 0.000012 0.000000 0.000000 1.000000
-0.742783 4.229927 0.000012 0.000000 0.000000 1.000000
-0.752740 4.276655 0.000012 0.000000 0.000000 1.000000
-0.727286 4.134924 0.000012 0.000000 0.000000 1.000000
-0.734290 4.182675 0.000012 0.000000 0.000000 1.000000
-0.717843 4.038025 0.000012 0.000000 0.000000 1.000000
-0.721796 4.086699 0.000012 0.000000 0.000000 1.000000
-0.714652 3.939426 0.000012 0.000000 0.000000 1.000000
-0.715453 3.988925 0.000012 0.000000 0.000000 1.000000
-0.717844 3.840827 0.000012 0.000000 0.000000 1.000000
-0.715454 3.889926 0.000012 0.000000 0.000000 1.000000
-0.727287 3.743927 0.000012 0.000000 0.000000 1.000000
-0.721796 3.792152 0.000012 0.000000 0.000000 1.000000
-0.742784 3.648924 0.000012 0.000000 0.000000 1.000000
-0.734291 3.696176 0.000012 0.000000 0.000000 1.000000
-0.764136 3.556016 0.000012 0.000000 0.000000 1.000000
-0.752740 3.602196 0.000012 0.000000 0.000000 1.000000
-0.791146 3.465402 0.000012 0.000000 0.000000 1.000000
-0.776946 3.510410 0.000012 0.000000 0.000000 1.000000
-0.823616 3.377278 0.000012 0.000000 0.000000 1.000000
-0.806711 3.421016 0.000012 0.000000 0.000000 1.000000
-0.861347 3.291842 0.000012 0.000000 0.000000 1.000000
-0.841836 3.334212 0.000012 0.000000 0.000000 1.000000
-0.904143 3.209294 0.000012 0.000000 0.000000 1.000000
-0.882124 3.250195 0.000012 0.000000 0.000000 1.000000
-0.951804 3.129830 0.000012 0.000000 0.000000 1.000000
-0.927378 3.169164 0.000012 0.000000 0.000000 1.000000
-1.004134 3.053649 0.000012 0.000000 0.000000 1.000000
-0.977398 3.091317 0.000012 0.000000 0.000000 1.000000
-1.060933 2.980948 0.000012 0.000000 0.000000 1.000000
-1.031987 3.016851 0.000012 0.000000 0.000000 1.000000
-1.122005 2.911925 0.000012 0.000000 0.000000 1.000000
-1.090948 2.945964 0.000012 0.000000 0.000000 1.000000
-1.187152 2.846779 0.000012 0.000000 0.000000 1.000000
-1.154082 2.878855 0.000012 0.000000 0.000000 1.000000
-0.500073 0.012092 0.000012 -0.000026 -0.000006 1.000000
-0.202007 0.999006 0.000026 -0.000026 -0.000006 1.000000
-1.187152 2.846779 0.000012 -0.000026 -0.000006 1.000000
-2.551856 5.401364 -9.999988 0.000000 0.000000 -1.000000
-2.505128 5.411321 -9.999988 0.000000 0.000000 -1.000000
-2.457876 5.419814 -9.999988 0.000000 0.000000 -1.000000
-2.410125 5.426818 -9.999988 0.000000 0.000000 -1.000000
-2.361900 5.432309 -9.999988 0.000000 0.000000 -1.000000
-2.313225 5.436261 -9.999988 0.000000 0.000000 -1.000000
-2.264126 5.438651 -9.999988 0.000000 0.000000 -1.000000
-2.214626 5.439453 -9.999988 -0.000000 0.000000 -1.000000
-2.165127 5.438651 -9.999988 -0.000000 0.000000 -1.000000
-2.116028 5.436261 -9.999988 0.000000 0.000000 -1.000000
-2.067353 5.432309 -9.999988 0.000000 0.000000 -1.000000
-2.019128 5.426818 -9.999988 0.000000 0.000000 -1.000000
-1.971377 5.419814 -9.999988 0.000000 0.000000 -1.000000
-1.924125 5.411322 -9.999988 0.000000 0.000000 -1.000000
-1.877397 5.401365 -9.999988 0.000000 0.000000 -1.000000
-1.831217 5.389969 -9.999988 0.000000 0.000000 -1.000000
-1.785611 5.377159 -9.999988 0.000000 0.000000 -1.000000
-1.740602 5.362959 -9.999988 0.000000 0.000000 -1.000000
-1.696217 5.347394 -9.999988 0.000000 0.000000 -1.000000
-1.652478 5.330489 -9.999988 0.000000 0.000000 -1.000000
-1.609412 5.312269 -9.999988 0.000000 0.000000 -1.000000
-1.567043 5.292758 -9.999988 0.000000 0.000000 -1.000000
-1.525396 5.271980 -9.999988 0.000000 0.000000 -1.000000
-1.484494 5.249962 -9.999988 0.000000 0.000000 -1.000000
-1.444365 5.226727 -9.999988 0.000000 0.000000 -1.000000
-1.405031 5.202301 -9.999988 0.000000 0.000000 -1.000000
-1.366517 5.176707 -9.999988 0.000000 0.000000 -1.000000
-1.328849 5.149971 -9.999988 0.000000 0.000000 -1.000000
-1.292051 5.122118 -9.999988 0.000000 0.000000 -1.000000
-1.256148 5.093172 -9.999988 0.000000 0.000000 -1.000000
-1.221165 5.063157 -9.999988 0.000000 0.000000 -1.000000
-1.187126 5.032100 -9.999988 0.000000 0.000000 -1.000000
-1.154056 5.000023 -9.999988 0.000000 0.000000 -1.000000
-1.121980 4.966953 -9.999988 0.000000 0.000000 -1.000000
-1.090922 4.932915 -9.999988 0.000000 0.000000 -1.000000
-1.060908 4.897931 -9.999988 0.000000 0.000000 -1.000000
-1.031962 4.862028 -9.999988 0.000000 0.000000 -1.000000
-1.004108 4.825230 -9.999988 0.000000 0.000000 -1.000000
-0.977372 4.787562 -9.999988 0.000000 0.000000 -1.000000
-0.951779 4.749049 -9.999988 0.000000 0.000000 -1.000000
-0.927352 4.709715 -9.999988 0.000000 0.000000 -1.000000
-0.904117 4.669585 -9.999988 0.000000 0.000000 -1.000000
-0.882099 4.628684 -9.999988 0.000000 0.000000 -1.000000
-0.861322 4.587036 -9.999988 0.000000 0.000000 -1.000000
-0.841810 4.544667 -9.999988 0.000000 0.000000 -1.000000
-0.823590 4.501601 -9.999988 0.000000 0.000000 -1.000000
-0.806685 4.457863 -9.999988 0.000000 0.000000 -1.000000
-0.791120 4.413477 -9.999988 0.000000 0.000000 -1.000000
-0.776920 4.368469 -9.999988 0.000000 0.000000 -1.000000
-0.764110 4.322862 -9.999988 0.000000 0.000000 -1.000000
-0.752714 4.276683 -9.999988 0.000000 0.000000 -1.000000
-0.742758 4.229954 -9.999988 0.000000 0.000000 -1.000000
-0.734265 4.182703 -9.999988 0.000000 0.000000 -1.000000
-0.727261 4.134952 -9.999988 0.000000 0.000000 -1.000000
-0.721770 4.086726 -9.999988 0.000000 0.000000 -1.000000
-0.717817 4.038052 -9.999988 0.000000 0.000000 -1.000000
-0.715428 3.988952 -9.999988 0.000000 0.000000 -1.000000
-0.714626 3.939453 -9.999988 0.000000 0.000000 -1.000000
-0.715428 3.889953 -9.999988 0.000000 0.000000 -1.000000
-0.717818 3.840854 -9.999988 0.000000 0.000000 -1.000000
-0.721771 3.792179 -9.999988 0.000000 0.000000 -1.000000
-0.727261 3.743954 -9.999988 0.000000 0.000000 -1.000000
-0.734265 3.696203 -9.999988 0.000000 0.000000 -1.000000
-0.742758 3.648952 -9.999988 0.000000 0.000000 -1.000000
-0.752715 3.602223 -9.999988 0.000000 0.000000 -1.000000
-0.764110 3.556044 -9.999988 0.000000 0.000000 -1.000000
-0.776920 3.510437 -9.999988 0.000000 0.000000 -1.000000
-0.791120 3.465429 -9.999988 0.000000 0.000000 -1.000000
-0.806685 3.421043 -9.999988 0.000000 0.000000 -1.000000
-0.823590 3.377305 -9.999988 0.000000 0.000000 -1.000000
-0.841810 3.334239 -9.999988 0.000000 0.000000 -1.000000
-0.861322 3.291870 -9.999988 0.000000 0.000000 -1.000000
-0.882099 3.250222 -9.999988 0.000000 0.000000 -1.000000
-0.904117 3.209321 -9.999988 0.000000 0.000000 -1.000000
-0.927352 3.169191 -9.999988 0.000000 0.000000 -1.000000
-0.951779 3.129857 -9.999988 0.000000 0.000000 -1.000000
-0.977372 3.091344 -9.999988 0.000000 0.000000 -1.000000
-1.004108 3.053676 -9.999988 0.000000 0.000000 -1.000000
-1.031962 3.016878 -9.999988 0.000000 0.000000 -1.000000
-1.060908 2.980975 -9.999988 0.000000 0.000000 -1.000000
-1.090922 2.945992 -9.999988 0.000000 0.000000 -1.000000
-1.121980 2.911952 -9.999988 0.000000 0.000000 -1.000000
-1.154056 2.878882 -9.999988 0.000000 0.000000 -1.000000
-1.187126 2.846806 -9.999988 0.000000 0.000000 -1.000000
-0.500048 0.012119 -9.999988 -0.000000 -0.000000 -1.000000
-4.000049 7.999988 -9.999988 -0.000000 -0.000000 -1.000000
-2.624639 5.394436 -9.999988 -0.000000 -0.000000 -1.000000
-4.000048 -0.125967 -9.999988 -0.000000 -0.000000 -1.000000
-4.000048 0.012119 -9.999988 -0.000000 -0.000000 -1.000000
3.999953 0.035947 -9.999988 0.000000 0.000000 -1.000000
3.999953 -0.125967 -9.999988 0.000000 0.000000 -1.000000
-0.201981 0.999033 -9.999974 0.000000 0.000014 -1.000000
0.794387 0.999033 -9.999974 0.000000 0.000014 -1.000000
0.794387 0.035947 -9.999988 0.000000 0.000014 -1.000000
0.794387 0.035947 -9.999988 0.000000 0.000000 -1.000000
-0.500048 0.012119 -9.999988 -0.000000 0.000014 -1.000000
-1.187126 2.846806 -9.999988 0.000025 0.000006 -1.000000
-0.201981 0.999033 -9.999974 0.000025 0.000006 -1.000000
-0.500048 0.012119 -9.999988 0.000025 0.000006 -1.000000
-0.806711 3.421016 0.000012 0.932755 -0.360511 0.000001
-0.823616 3.377278 0.000012 0.932755 -0.360511 0.000001
-0.823590 3.377305 -9.999988 0.932755 -0.360511 0.000001
-0.806685 3.421043 -9.999988 0.932755 -0.360511 0.000001
-0.882124 4.628656 0.000012 0.894827 0.446414 0.000004
-0.861347 4.587009 0.000012 0.894827 0.446414 0.000004
-0.861322 4.587036 -9.999988 0.894827 0.446414 0.000004
-0.882099 4.628684 -9.999988 0.894827 0.446414 0.000004
-1.785636 5.377131 0.000012 0.300872 0.953665 0.000003
-1.740628 5.362932 0.000012 0.300872 0.953665 0.000003
-1.740602 5.362959 -9.999988 0.300872 0.953665 0.000003
-1.785611 5.377159 -9.999988 0.300872 0.953665 0.000003
-0.823616 3.377278 0.000012 0.920966 -0.389643 0.000001
-0.841836 3.334212 0.000012 0.920966 -0.389643 0.000001
-0.841810 3.334239 -9.999988 0.920966 -0.389643 0.000001
-0.823590 3.377305 -9.999988 0.920966 -0.389643 0.000001
-0.861347 4.587009 0.000012 0.908316 0.418284 0.000003
-0.841836 4.544640 0.000012 0.908316 0.418284 0.000003
-0.841810 4.544667 -9.999988 0.908316 0.418284 0.000003
-0.861322 4.587036 -9.999988 0.908316 0.418284 0.000003
-1.740628 5.362932 0.000012 0.330917 0.943660 0.000003
-1.696242 5.347367 0.000012 0.330917 0.943660 0.000003
-1.696217 5.347394 -9.999988 0.330917 0.943660 0.000003
-1.740602 5.362959 -9.999988 0.330917 0.943660 0.000003
-0.841836 3.334212 0.000012 0.908316 -0.418285 0.000001
-0.861347 3.291842 0.000012 0.908316 -0.418285 0.000001
-0.861322 3.291870 -9.999988 0.908316 -0.418285 0.000001
-0.841810 3.334239 -9.999988 0.908316 -0.418285 0.000001
-0.841836 4.544640 0.000012 0.920966 0.389643 0.000003
-0.823615 4.501574 0.000012 0.920966 0.389643 0.000003
-0.823590 4.501601 -9.999988 0.920966 0.389643 0.000003
-0.841810 4.544667 -9.999988 0.920966 0.389643 0.000003
-1.696242 5.347367 0.000012 0.360510 0.932755 0.000003
-1.652504 5.330462 0.000012 0.360510 0.932755 0.000003
-1.652478 5.330489 -9.999988 0.360510 0.932755 0.000003
-1.696217 5.347394 -9.999988 0.360510 0.932755 0.000003
-0.861347 3.291842 0.000012 0.894827 -0.446412 0.000001
-0.882124 3.250195 0.000012 0.894827 -0.446412 0.000001
-0.882099 3.250222 -9.999988 0.894827 -0.446412 0.000001
-0.861322 3.291870 -9.999988 0.894827 -0.446412 0.000001
-0.823615 4.501574 0.000012 0.932755 0.360512 0.000003
-0.806710 4.457836 0.000012 0.932755 0.360512 0.000003
-0.806685 4.457863 -9.999988 0.932755 0.360512 0.000003
-0.823590 4.501601 -9.999988 0.932755 0.360512 0.000003
-1.652504 5.330462 0.000012 0.389642 0.920966 0.000004
-1.609438 5.312242 0.000012 0.389642 0.920966 0.000004
-1.609412 5.312269 -9.999988 0.389642 0.920966 0.000004
-1.652478 5.330489 -9.999988 0.389642 0.920966 0.000004
-0.882124 3.250195 0.000012 0.880520 -0.474010 0.000001
-0.904143 3.209294 0.000012 0.880520 -0.474010 0.000001
-0.904117 3.209321 -9.999988 0.880520 -0.474010 0.000001
-0.882099 3.250222 -9.999988 0.880520 -0.474010 0.000001
-0.806710 4.457836 0.000012 0.943661 0.330914 0.000003
-0.791146 4.413450 0.000012 0.943661 0.330914 0.000003
-0.791120 4.413477 -9.999988 0.943661 0.330914 0.000003
-0.806685 4.457863 -9.999988 0.943661 0.330914 0.000003
-1.609438 5.312242 0.000012 0.418285 0.908316 0.000004
-1.567069 5.292730 0.000012 0.418285 0.908316 0.000004
-1.567043 5.292758 -9.999988 0.418285 0.908316 0.000004
-1.609412 5.312269 -9.999988 0.418285 0.908316 0.000004
-0.904143 3.209294 0.000012 0.865409 -0.501065 0.000001
-0.927378 3.169164 0.000012 0.865409 -0.501065 0.000001
-0.927352 3.169191 -9.999988 0.865409 -0.501065 0.000001
-0.904117 3.209321 -9.999988 0.865409 -0.501065 0.000001
-0.791146 4.413450 0.000012 0.953664 0.300875 0.000003
-0.776946 4.368442 0.000012 0.953664 0.300875 0.000003
-0.776920 4.368469 -9.999988 0.953664 0.300875 0.000003
-0.791120 4.413477 -9.999988 0.953664 0.300875 0.000003
-1.567069 5.292730 0.000012 0.446414 0.894827 0.000004
-1.525421 5.271953 0.000012 0.446414 0.894827 0.000004
-1.525396 5.271980 -9.999988 0.446414 0.894827 0.000004
-1.567043 5.292758 -9.999988 0.446414 0.894827 0.000004
-0.927378 3.169164 0.000012 0.849520 -0.527556 0.000001
-0.951804 3.129830 0.000012 0.849520 -0.527556 0.000001
-0.951779 3.129857 -9.999988 0.849520 -0.527556 0.000001
-0.927352 3.169191 -9.999988 0.849520 -0.527556 0.000001
-0.776946 4.368442 0.000012 0.962742 0.270420 0.000003
-0.764136 4.322835 0.000012 0.962742 0.270420 0.000003
-0.764110 4.322862 -9.999988 0.962742 0.270420 0.000003
-0.776920 4.368469 -9.999988 0.962742 0.270420 0.000003
-1.525421 5.271953 0.000012 0.474008 0.880520 0.000004
-1.484520 5.249935 0.000012 0.474008 0.880520 0.000004
-1.484494 5.249962 -9.999988 0.474008 0.880520 0.000004
-1.525396 5.271980 -9.999988 0.474008 0.880520 0.000004
-0.951804 3.129830 0.000012 0.832866 -0.553475 0.000001
-0.977398 3.091317 0.000012 0.832866 -0.553475 0.000001
-0.977372 3.091344 -9.999988 0.832866 -0.553475 0.000001
-0.951779 3.129857 -9.999988 0.832866 -0.553475 0.000001
-0.764136 4.322835 0.000012 0.970875 0.239585 0.000003
-0.752740 4.276655 0.000012 0.970875 0.239585 0.000003
-0.752714 4.276683 -9.999988 0.970875 0.239585 0.000003
-0.764110 4.322862 -9.999988 0.970875 0.239585 0.000003
-1.484520 5.249935 0.000012 0.501066 0.865409 0.000004
-1.444390 5.226700 0.000012 0.501066 0.865409 0.000004
-1.444365 5.226727 -9.999988 0.501066 0.865409 0.000004
-1.484494 5.249962 -9.999988 0.501066 0.865409 0.000004
-0.977398 3.091317 0.000012 0.815468 -0.578801 0.000001
-1.004134 3.053649 0.000012 0.815468 -0.578801 0.000001
-1.004108 3.053676 -9.999988 0.815468 -0.578801 0.000001
-0.977372 3.091344 -9.999988 0.815468 -0.578801 0.000001
-0.752740 4.276655 0.000012 0.978044 0.208396 0.000003
-0.742783 4.229927 0.000012 0.978044 0.208396 0.000003
-0.742758 4.229954 -9.999988 0.978044 0.208396 0.000003
-0.752714 4.276683 -9.999988 0.978044 0.208396 0.000003
-1.444390 5.226700 0.000012 0.527557 0.849520 0.000004
-1.405056 5.202273 0.000012 0.527557 0.849520 0.000004
-1.405031 5.202301 -9.999988 0.527557 0.849520 0.000004
-1.444365 5.226727 -9.999988 0.527557 0.849520 0.000004
-1.004134 3.053649 0.000012 0.797340 -0.603530 0.000000
-1.031987 3.016851 0.000012 0.797340 -0.603530 0.000000
-1.031962 3.016878 -9.999988 0.797340 -0.603530 0.000000
-1.004108 3.053676 -9.999988 0.797340 -0.603530 0.000000
-0.742783 4.229927 0.000012 0.984229 0.176900 0.000003
-0.734290 4.182675 0.000012 0.984229 0.176900 0.000003
-0.734265 4.182703 -9.999988 0.984229 0.176900 0.000003
-0.742758 4.229954 -9.999988 0.984229 0.176900 0.000003
-1.405056 5.202273 0.000012 0.553475 0.832866 0.000004
-1.366543 5.176680 0.000012 0.553475 0.832866 0.000004
-1.366517 5.176707 -9.999988 0.553475 0.832866 0.000004
-1.405031 5.202301 -9.999988 0.553475 0.832866 0.000004
-2.624665 5.394408 0.000012 -0.094771 0.995499 0.000002
-2.551882 5.401338 0.000012 -0.094771 0.995499 0.000002
-2.551856 5.401364 -9.999988 -0.094771 0.995499 0.000002
-2.624639 5.394436 -9.999988 -0.094771 0.995499 0.000002
-1.031987 3.016851 0.000012 0.778496 -0.627649 0.000000
-1.060933 2.980948 0.000012 0.778496 -0.627649 0.000000
-1.060908 2.980975 -9.999988 0.778496 -0.627649 0.000000
-1.031962 3.016878 -9.999988 0.778496 -0.627649 0.000000
-0.734290 4.182675 0.000012 0.989413 0.145128 0.000003
-0.727286 4.134924 0.000012 0.989413 0.145128 0.000003
-0.727261 4.134952 -9.999988 0.989413 0.145128 0.000003
-0.734265 4.182703 -9.999988 0.989413 0.145128 0.000003
-1.366543 5.176680 0.000012 0.578800 0.815469 0.000004
-1.328875 5.149944 0.000012 0.578800 0.815469 0.000004
-1.328849 5.149971 -9.999988 0.578800 0.815469 0.000004
-1.366517 5.176707 -9.999988 0.578800 0.815469 0.000004
-2.551882 5.401338 0.000012 -0.208396 0.978045 0.000002
-2.505153 5.411294 0.000012 -0.208396 0.978045 0.000002
-2.505128 5.411321 -9.999988 -0.208396 0.978045 0.000002
-2.551856 5.401364 -9.999988 -0.208396 0.978045 0.000002
-1.060933 2.980948 0.000012 0.758951 -0.651148 0.000000
-1.090948 2.945964 0.000012 0.758951 -0.651148 0.000000
-1.090922 2.945992 -9.999988 0.758951 -0.651148 0.000000
-1.060908 2.980975 -9.999988 0.758951 -0.651148 0.000000
-0.727286 4.134924 0.000012 0.993581 0.113124 0.000003
-0.721796 4.086699 0.000012 0.993581 0.113124 0.000003
-0.721770 4.086726 -9.999988 0.993581 0.113124 0.000003
-0.727261 4.134952 -9.999988 0.993581 0.113124 0.000003
-1.328875 5.149944 0.000012 0.603528 0.797342 0.000004
-1.292077 5.122090 0.000012 0.603528 0.797342 0.000004
-1.292051 5.122118 -9.999988 0.603528 0.797342 0.000004
-1.328849 5.149971 -9.999988 0.603528 0.797342 0.000004
-2.505153 5.411294 0.000012 -0.176898 0.984229 0.000002
-2.457901 5.419786 0.000012 -0.176898 0.984229 0.000002
-2.457876 5.419814 -9.999988 -0.176898 0.984229 0.000002
-2.505128 5.411321 -9.999988 -0.176898 0.984229 0.000002
-1.090948 2.945964 0.000012 0.738718 -0.674015 0.000000
-1.122005 2.911925 0.000012 0.738718 -0.674015 0.000000
-1.121980 2.911952 -9.999988 0.738718 -0.674015 0.000000
-1.090922 2.945992 -9.999988 0.738718 -0.674015 0.000000
-0.721796 4.086699 0.000012 0.996719 0.080936 0.000003
-0.717843 4.038025 0.000012 0.996719 0.080936 0.000003
-0.717817 4.038052 -9.999988 0.996719 0.080936 0.000003
-0.721770 4.086726 -9.999988 0.996719 0.080936 0.000003
-1.292077 5.122090 0.000012 0.627649 0.778496 0.000004
-1.256174 5.093144 0.000012 0.627649 0.778496 0.000004
-1.256148 5.093172 -9.999988 0.627649 0.778496 0.000004
-1.292051 5.122118 -9.999988 0.627649 0.778496 0.000004
-2.457901 5.419786 0.000012 -0.145126 0.989413 0.000002
-2.410151 5.426791 0.000012 -0.145126 0.989413 0.000002
-2.410125 5.426818 -9.999988 -0.145126 0.989413 0.000002
-2.457876 5.419814 -9.999988 -0.145126 0.989413 0.000002
-1.122005 2.911925 0.000012 0.717811 -0.696238 -0.000000
-1.154082 2.878855 0.000012 0.717811 -0.696238 -0.000000
-1.154056 2.878882 -9.999988 0.717811 -0.696238 -0.000000
-1.121980 2.911952 -9.999988 0.717811 -0.696238 -0.000000
-0.717843 4.038025 0.000012 0.998818 0.048612 0.000003
-0.715453 3.988925 0.000012 0.998818 0.048612 0.000003
-0.715428 3.988952 -9.999988 0.998818 0.048612 0.000003
-0.717817 4.038052 -9.999988 0.998818 0.048612 0.000003
-1.256174 5.093144 0.000012 0.651151 0.758948 0.000004
-1.221191 5.063130 0.000012 0.651151 0.758948 0.000004
-1.221165 5.063157 -9.999988 0.651151 0.758948 0.000004
-1.256148 5.093172 -9.999988 0.651151 0.758948 0.000004
-2.410151 5.426791 0.000012 -0.113126 0.993581 0.000002
-2.361926 5.432281 0.000012 -0.113126 0.993581 0.000002
-2.361900 5.432309 -9.999988 -0.113126 0.993581 0.000002
-2.410125 5.426818 -9.999988 -0.113126 0.993581 0.000002
-1.154082 2.878855 0.000012 0.696238 -0.717811 -0.000000
-1.187152 2.846779 0.000012 0.696238 -0.717811 -0.000000
-1.187126 2.846806 -9.999988 0.696238 -0.717811 -0.000000
-1.154056 2.878882 -9.999988 0.696238 -0.717811 -0.000000
-0.715453 3.988925 0.000012 0.999869 0.016189 0.000003
-0.714652 3.939426 0.000012 0.999869 0.016189 0.000003
-0.714626 3.939453 -9.999988 0.999869 0.016189 0.000003
-0.715428 3.988952 -9.999988 0.999869 0.016189 0.000003
-1.221191 5.063130 0.000012 0.674011 0.738722 0.000004
-1.187152 5.032073 0.000012 0.674011 0.738722 0.000004
-1.187126 5.032100 -9.999988 0.674011 0.738722 0.000004
-1.221165 5.063157 -9.999988 0.674011 0.738722 0.000004
-2.361926 5.432281 0.000012 -0.080936 0.996719 0.000003
-2.313251 5.436234 0.000012 -0.080936 0.996719 0.000003
-2.313225 5.436261 -9.999988 -0.080936 0.996719 0.000003
-2.361900 5.432309 -9.999988 -0.080936 0.996719 0.000003
-4.000073 0.012092 0.000012 0.000000 1.000000 0.000003
-0.500073 0.012092 0.000012 0.000000 1.000000 0.000003
-0.500048 0.012119 -9.999988 0.000000 1.000000 0.000003
-4.000048 0.012119 -9.999988 0.000000 1.000000 0.000003
-0.714652 3.939426 0.000012 0.999869 -0.016200 0.000003
-0.715454 3.889926 0.000012 0.999869 -0.016200 0.000003
-0.715428 3.889953 -9.999988 0.999869 -0.016200 0.000003
-0.714626 3.939453 -9.999988 0.999869 -0.016200 0.000003
-1.187152 5.032073 0.000012 0.696240 0.717809 0.000004
-1.154082 4.999996 0.000012 0.696240 0.717809 0.000004
-1.154056 5.000023 -9.999988 0.696240 0.717809 0.000004
-1.187126 5.032100 -9.999988 0.696240 0.717809 0.000004
-2.313251 5.436234 0.000012 -0.048607 0.998818 0.000003
-2.264151 5.438623 0.000012 -0.048607 0.998818 0.000003
-2.264126 5.438651 -9.999988 -0.048607 0.998818 0.000003
-2.313225 5.436261 -9.999988 -0.048607 0.998818 0.000003
-0.500073 0.012092 0.000012 -0.915934 -0.401330 -0.000003
-4.000074 7.999961 0.000012 -0.915934 -0.401330 -0.000003
-4.000049 7.999988 -9.999988 -0.915934 -0.401330 -0.000003
-0.500048 0.012119 -9.999988 -0.915934 -0.401330 -0.000003
-0.715454 3.889926 0.000012 0.998818 -0.048612 0.000002
-0.717844 3.840827 0.000012 0.998818 -0.048612 0.000002
-0.717818 3.840854 -9.999988 0.998818 -0.048612 0.000002
-0.715428 3.889953 -9.999988 0.998818 -0.048612 0.000002
-1.154082 4.999996 0.000012 0.717809 0.696240 0.000004
-1.122005 4.966927 0.000012 0.717809 0.696240 0.000004
-1.121980 4.966953 -9.999988 0.717809 0.696240 0.000004
-1.154056 5.000023 -9.999988 0.717809 0.696240 0.000004
-2.264151 5.438623 0.000012 -0.016206 0.999869 0.000003
-2.214652 5.439425 0.000012 -0.016206 0.999869 0.000003
-2.214626 5.439453 -9.999988 -0.016206 0.999869 0.000003
-2.264126 5.438651 -9.999988 -0.016206 0.999869 0.000003
0.794362 0.035920 0.000012 0.000000 1.000000 0.000003
3.999927 0.035920 0.000012 0.000000 1.000000 0.000003
3.999953 0.035947 -9.999988 0.000000 1.000000 0.000003
0.794387 0.035947 -9.999988 0.000000 1.000000 0.000003
-0.717844 3.840827 0.000012 0.996719 -0.080936 0.000002
-0.721796 3.792152 0.000012 0.996719 -0.080936 0.000002
-0.721771 3.792179 -9.999988 0.996719 -0.080936 0.000002
-0.717818 3.840854 -9.999988 0.996719 -0.080936 0.000002
-1.122005 4.966927 0.000012 0.738718 0.674015 0.000004
-1.090948 4.932887 0.000012 0.738718 0.674015 0.000004
-1.090922 4.932915 -9.999988 0.738718 0.674015 0.000004
-1.121980 4.966953 -9.999988 0.738718 0.674015 0.000004
-2.214652 5.439425 0.000012 0.016201 0.999869 0.000003
-2.165153 5.438623 0.000012 0.016201 0.999869 0.000003
-2.165127 5.438651 -9.999988 0.016201 0.999869 0.000003
-2.214626 5.439453 -9.999988 0.016201 0.999869 0.000003
-4.000073 -0.125994 0.000012 -1.000000 0.000000 -0.000003
-4.000073 0.012092 0.000012 -1.000000 0.000000 -0.000003
-4.000048 0.012119 -9.999988 -1.000000 0.000000 -0.000003
-4.000048 -0.125967 -9.999988 -1.000000 0.000000 -0.000003
-0.721796 3.792152 0.000012 0.993581 -0.113124 0.000002
-0.727287 3.743927 0.000012 0.993581 -0.113124 0.000002
-0.727261 3.743954 -9.999988 0.993581 -0.113124 0.000002
-0.721771 3.792179 -9.999988 0.993581 -0.113124 0.000002
-1.090948 4.932887 0.000012 0.758951 0.651148 0.000004
-1.060933 4.897904 0.000012 0.758951 0.651148 0.000004
-1.060908 4.897931 -9.999988 0.758951 0.651148 0.000004
-1.090922 4.932915 -9.999988 0.758951 0.651148 0.000004
-2.165153 5.438623 0.000012 0.048612 0.998818 0.000003
-2.116053 5.436234 0.000012 0.048612 0.998818 0.000003
-2.116028 5.436261 -9.999988 0.048612 0.998818 0.000003
-2.165127 5.438651 -9.999988 0.048612 0.998818 0.000003
3.999927 -0.125994 0.000012 0.000000 -1.000000 -0.000003
-4.000073 -0.125994 0.000012 0.000000 -1.000000 -0.000003
-4.000048 -0.125967 -9.999988 0.000000 -1.000000 -0.000003
3.999953 -0.125967 -9.999988 0.000000 -1.000000 -0.000003
-0.727287 3.743927 0.000012 0.989413 -0.145124 0.000002
-0.734291 3.696176 0.000012 0.989413 -0.145124 0.000002
-0.734265 3.696203 -9.999988 0.989413 -0.145124 0.000002
-0.727261 3.743954 -9.999988 0.989413 -0.145124 0.000002
-1.060933 4.897904 0.000012 0.778496 0.627649 0.000004
-1.031987 4.862001 0.000012 0.778496 0.627649 0.000004
-1.031962 4.862028 -9.999988 0.778496 0.627649 0.000004
-1.060908 4.897931 -9.999988 0.778496 0.627649 0.000004
-2.116053 5.436234 0.000012 0.080936 0.996719 0.000003
-2.067379 5.432281 0.000012 0.080936 0.996719 0.000003
-2.067353 5.432309 -9.999988 0.080936 0.996719 0.000003
-2.116028 5.436261 -9.999988 0.080936 0.996719 0.000003
3.999927 0.035920 0.000012 1.000000 0.000000 0.000003
3.999927 -0.125994 0.000012 1.000000 0.000000 0.000003
3.999953 -0.125967 -9.999988 1.000000 0.000000 0.000003
3.999953 0.035947 -9.999988 1.000000 0.000000 0.000003
-0.734291 3.696176 0.000012 0.984229 -0.176900 0.000002
-0.742784 3.648924 0.000012 0.984229 -0.176900 0.000002
-0.742758 3.648952 -9.999988 0.984229 -0.176900 0.000002
-0.734265 3.696203 -9.999988 0.984229 -0.176900 0.000002
-1.031987 4.862001 0.000012 0.797340 0.603530 0.000004
-1.004134 4.825203 0.000012 0.797340 0.603530 0.000004
-1.004108 4.825230 -9.999988 0.797340 0.603530 0.000004
-1.031962 4.862028 -9.999988 0.797340 0.603530 0.000004
-2.067379 5.432281 0.000012 0.113121 0.993581 0.000003
-2.019153 5.426791 0.000012 0.113121 0.993581 0.000003
-2.019128 5.426818 -9.999988 0.113121 0.993581 0.000003
-2.067353 5.432309 -9.999988 0.113121 0.993581 0.000003
0.794362 0.999006 0.000026 1.000000 -0.000000 0.000003
0.794362 0.035920 0.000012 1.000000 -0.000000 0.000003
0.794387 0.035947 -9.999988 1.000000 -0.000000 0.000003
0.794387 0.999033 -9.999974 1.000000 -0.000000 0.000003
-0.742784 3.648924 0.000012 0.978044 -0.208397 0.000002
-0.752740 3.602196 0.000012 0.978044 -0.208397 0.000002
-0.752715 3.602223 -9.999988 0.978044 -0.208397 0.000002
-0.742758 3.648952 -9.999988 0.978044 -0.208397 0.000002
-1.004134 4.825203 0.000012 0.815467 0.578804 0.000004
-0.977398 4.787535 0.000012 0.815467 0.578804 0.000004
-0.977372 4.787562 -9.999988 0.815467 0.578804 0.000004
-1.004108 4.825230 -9.999988 0.815467 0.578804 0.000004
-2.019153 5.426791 0.000012 0.145126 0.989413 0.000003
-1.971402 5.419787 0.000012 0.145126 0.989413 0.000003
-1.971377 5.419814 -9.999988 0.145126 0.989413 0.000003
-2.019128 5.426818 -9.999988 0.145126 0.989413 0.000003
-0.202007 0.999006 0.000026 0.000000 1.000000 0.000003
0.794362 0.999006 0.000026 0.000000 1.000000 0.000003
0.794387 0.999033 -9.999974 0.000000 1.000000 0.000003
-0.201981 0.999033 -9.999974 0.000000 1.000000 0.000003
-0.752740 3.602196 0.000012 0.970876 -0.239582 0.000002
-0.764136 3.556016 0.000012 0.970876 -0.239582 0.000002
-0.764110 3.556044 -9.999988 0.970876 -0.239582 0.000002
-0.752715 3.602223 -9.999988 0.970876 -0.239582 0.000002
-0.977398 4.787535 0.000012 0.832868 0.553472 0.000004
-0.951804 4.749022 0.000012 0.832868 0.553472 0.000004
-0.951779 4.749049 -9.999988 0.832868 0.553472 0.000004
-0.977372 4.787562 -9.999988 0.832868 0.553472 0.000004
-1.971402 5.419787 0.000012 0.176898 0.984229 0.000003
-1.924150 5.411294 0.000012 0.176898 0.984229 0.000003
-1.924125 5.411322 -9.999988 0.176898 0.984229 0.000003
-1.971377 5.419814 -9.999988 0.176898 0.984229 0.000003
-1.187152 2.846779 0.000012 0.882419 0.470464 0.000004
-0.202007 0.999006 0.000026 0.882419 0.470464 0.000004
-0.201981 0.999033 -9.999974 0.882419 0.470464 0.000004
-1.187126 2.846806 -9.999988 0.882419 0.470464 0.000004
-0.764136 3.556016 0.000012 0.962742 -0.270420 0.000002
-0.776946 3.510410 0.000012 0.962742 -0.270420 0.000002
-0.776920 3.510437 -9.999988 0.962742 -0.270420 0.000002
-0.764110 3.556044 -9.999988 0.962742 -0.270420 0.000002
-0.951804 4.749022 0.000012 0.849520 0.527556 0.000004
-0.927378 4.709688 0.000012 0.849520 0.527556 0.000004
-0.927352 4.709715 -9.999988 0.849520 0.527556 0.000004
-0.951779 4.749049 -9.999988 0.849520 0.527556 0.000004
-1.924150 5.411294 0.000012 0.208397 0.978044 0.000003
-1.877422 5.401338 0.000012 0.208397 0.978044 0.000003
-1.877397 5.401365 -9.999988 0.208397 0.978044 0.000003
-1.924125 5.411322 -9.999988 0.208397 0.978044 0.000003
-4.000074 7.999961 0.000012 0.884349 0.466827 0.000004
-2.624665 5.394408 0.000012 0.884349 0.466827 0.000004
-2.624639 5.394436 -9.999988 0.884349 0.466827 0.000004
-4.000049 7.999988 -9.999988 0.884349 0.466827 0.000004
-0.776946 3.510410 0.000012 0.953664 -0.300874 0.000002
-0.791146 3.465402 0.000012 0.953664 -0.300874 0.000002
-0.791120 3.465429 -9.999988 0.953664 -0.300874 0.000002
-0.776920 3.510437 -9.999988 0.953664 -0.300874 0.000002
-0.927378 4.709688 0.000012 0.865411 0.501063 0.000004
-0.904143 4.669558 0.000012 0.865411 0.501063 0.000004
-0.904117 4.669585 -9.999988 0.865411 0.501063 0.000004
-0.927352 4.709715 -9.999988 0.865411 0.501063 0.000004
-1.877422 5.401338 0.000012 0.239587 0.970875 0.000003
-1.831243 5.389942 0.000012 0.239587 0.970875 0.000003
-1.831217 5.389969 -9.999988 0.239587 0.970875 0.000003
-1.877397 5.401365 -9.999988 0.239587 0.970875 0.000003
-0.791146 3.465402 0.000012 0.943660 -0.330915 0.000002
-0.806711 3.421016 0.000012 0.943660 -0.330915 0.000002
-0.806685 3.421043 -9.999988 0.943660 -0.330915 0.000002
-0.791120 3.465429 -9.999988 0.943660 -0.330915 0.000002
-0.904143 4.669558 0.000012 0.880517 0.474014 0.000004
-0.882124 4.628656 0.000012 0.880517 0.474014 0.000004
-0.882099 4.628684 -9.999988 0.880517 0.474014 0.000004
-0.904117 4.669585 -9.999988 0.880517 0.474014 0.000004
-1.831243 5.389942 0.000012 0.270422 0.962742 0.000003
-1.785636 5.377131 0.000012 0.270422 0.962742 0.000003
-1.785611 5.377159 -9.999988 0.270422 0.962742 0.000003
-1.831217 5.389969 -9.999988 0.270422 0.962742 0.000003
3 0 1 2
3 2 3 4
3 4 5 6
3 7 8 9
3 4 6 10
3 11 12 13
3 14 15 16
3 17 7 9
3 18 19 2
3 20 21 18
3 22 23 20
3 24 25 22
3 26 27 24
3 28 29 26
3 30 31 28
3 32 33 30
3 34 35 32
3 36 37 34
3 38 39 36
3 40 41 38
3 42 43 40
3 44 45 42
3 46 47 44
3 48 49 46
3 50 51 48
3 52 53 50
3 54 55 52
3 56 57 54
3 58 59 56
3 60 61 58
3 62 63 60
3 64 65 62
3 66 67 64
3 68 69 66
3 70 71 68
3 72 73 70
3 74 75 72
3 76 77 74
3 78 79 76
3 80 81 78
3 82 83 80
3 84 85 82
3 86 87 84
3 88 89 86
3 90 91 88
3 92 93 90
3 94 95 92
3 96 97 94
3 98 99 96
3 100 101 98
3 102 103 104
3 20 18 2
3 24 22 20
3 28 26 24
3 32 30 28
3 36 34 32
3 40 38 36
3 44 42 40
3 48 46 44
3 52 50 48
3 56 54 52
3 60 58 56
3 64 62 60
3 68 66 64
3 72 70 68
3 76 74 72
3 80 78 76
3 84 82 80
3 88 86 84
3 92 90 88
3 96 94 92
3 100 98 96
3 20 2 100
3 28 24 20
3 36 32 28
3 44 40 36
3 52 48 44
3 60 56 52
3 68 64 60
3 76 72 68
3 84 80 76
3 92 88 84
3 100 96 92
3 28 20 100
3 44 36 28
3 60 52 44
3 76 68 60
3 92 84 76
3 28 100 92
3 60 44 28
3 92 76 60
3 92 60 28
3 105 106 107
3 107 108 109
3 109 110 111
3 111 112 113
3 113 114 115
3 115 116 117
3 117 118 119
3 119 120 121
3 121 122 123
3 123 124 125
3 125 126 127
3 127 128 129
3 129 130 131
3 131 132 133
3 133 134 135
3 135 136 137
3 137 138 139
3 139 140 141
3 141 142 143
3 143 144 145
3 145 146 147
3 147 148 149
3 149 150 151
3 151 152 153
3 153 154 155
3 155 156 157
3 157 158 159
3 159 160 161
3 161 162 163
3 163 164 165
3 165 166 167
3 167 168 169
3 169 170 171
3 171 172 173
3 173 174 175
3 175 176 177
3 177 178 179
3 179 180 181
3 181 182 183
3 183 184 185
3 185 186 187
3 185 187 188
3 181 183 185
3 177 179 181
3 173 175 177
3 169 171 173
3 165 167 169
3 161 163 165
3 157 159 161
3 153 155 157
3 149 151 153
3 145 147 149
3 141 143 145
3 137 139 141
3 133 135 137
3 129 131 133
3 125 127 129
3 121 123 125
3 117 119 121
3 113 115 117
3 109 111 113
3 105 107 109
3 189 190 191
3 105 109 113
3 189 191 105
3 192 193 189
3 194 195 192
3 196 197 198
3 199 194 192
3 189 105 113
3 199 192 189
3 196 198 200
3 189 113 117
3 117 121 125
3 125 129 133
3 133 137 141
3 141 145 149
3 149 153 157
3 157 161 165
3 165 169 173
3 173 177 181
3 181 185 188
3 201 202 203
3 117 125 133
3 133 141 149
3 149 157 165
3 165 173 181
3 188 189 117
3 165 181 188
3 133 149 165
3 188 117 133
3 133 165 188
4 204 205 206 207
4 208 209 210 211
4 212 213 214 215
4 216 217 218 219
4 220 221 222 223
4 224 225 226 227
4 228 229 230 231
4 232 233 234 235
4 236 237 238 239
4 240 241 242 243
4 244 245 246 247
4 248 249 250 251
4 252 253 254 255
4 256 257 258 259
4 260 261 262 263
4 264 265 266 267
4 268 269 270 271
4 272 273 274 275
4 276 277 278 279
4 280 281 282 283
4 284 285 286 287
4 288 289 290 291
4 292 293 294 295
4 296 297 298 299
4 300 301 302 303
4 304 305 306 307
4 308 309 310 311
4 312 313 314 315
4 316 317 318 319
4 320 321 322 323
4 324 325 326 327
4 328 329 330 331
4 332 333 334 335
4 336 337 338 339
4 340 341 342 343
4 344 345 346 347
4 348 349 350 351
4 352 353 354 355
4 356 357 358 359
4 360 361 362 363
4 364 365 366 367
4 368 369 370 371
4 372 373 374 375
4 376 377 378 379
4 380 381 382 383
4 384 385 386 387
4 388 389 390 391
4 392 393 394 395
4 396 397 398 399
4 400 401 402 403
4 404 405 406 407
4 408 409 410 411
4 412 413 414 415
4 416 417 418 419
4 420 421 422 423
4 424 425 426 427
4 428 429 430 431
4 432 433 434 435
4 436 437 438 439
4 440 441 442 443
4 444 445 446 447
4 448 449 450 451
4 452 453 454 455
4 456 457 458 459
4 460 461 462 463
4 464 465 466 467
4 468 469 470 471
4 472 473 474 475
4 476 477 478 479
4 480 481 482 483
4 484 485 486 487
4 488 489 490 491
4 492 493 494 495
4 496 497 498 499
4 500 501 502 503
4 504 505 506 507
4 508 509 510 511
4 512 513 514 515
4 516 517 518 519
4 520 521 522 523
4 524 525 526 527
4 528 529 530 531
4 532 533 534 535
4 536 537 538 539
4 540 541 542 543
4 544 545 546 547
4 548 549 550 551
4 552 553 554 555
4 556 557 558 559
4 560 561 562 563
4 564 565 566 567
4 568 569 570 571
4 572 573 574 575
4 576 577 578 579
