ply
format ascii 1.0
comment Created by Blender 2.78 (sub 0) - www.blender.org, source file: 'synthetic1.blend'
element vertex 47
property float x
property float y
property float z
property float nx
property float ny
property float nz
element face 17
property list uchar uint vertex_indices
end_header
-0.000074 -0.000039 0.000012 0.000000 0.000001 -1.000000
1.999926 -0.000039 0.000012 0.000000 0.000001 -1.000000
1.999926 -0.100039 0.000012 0.000000 0.000001 -1.000000
1.999926 -0.100039 0.000012 0.000000 0.000000 -1.000000
-2.000074 -0.100039 0.000012 0.000000 0.000000 -1.000000
-2.000074 0.000178 0.000012 0.000000 0.000000 -1.000000
-0.600074 0.000179 0.000012 0.000000 -0.000000 -1.000000
-0.000074 7.999961 0.000012 0.000000 -0.000000 -1.000000
-0.000074 -0.000039 0.000012 0.000000 -0.000000 -1.000000
-0.000074 -0.000039 0.000012 0.000000 0.000002 -1.000000
1.999926 -0.100039 0.000012 0.000000 0.000002 -1.000000
-0.600074 0.000179 0.000012 0.000000 0.000002 -1.000000
-0.000074 -0.000039 10.000012 -0.000000 0.000000 1.000000
-0.000074 7.999960 10.000012 -0.000000 0.000000 1.000000
-0.600074 0.000178 10.000012 -0.000000 0.000000 1.000000
-2.000074 0.000178 10.000012 0.000000 0.000000 1.000000
-2.000074 -0.100039 10.000012 0.000000 0.000000 1.000000
1.999926 -0.100039 10.000012 0.000000 0.000000 1.000000
1.999926 -0.000039 10.000012 0.000000 0.000000 1.000000
1.999926 -0.100039 0.000012 1.000000 0.000000 0.000000
1.999926 -0.000039 0.000012 1.000000 0.000000 0.000000
1.999926 -0.000039 10.000012 1.000000 0.000000 0.000000
1.999926 -0.100039 10.000012 1.000000 0.000000 0.000000
-2.000074 0.000178 0.000012 -1.000000 0.000000 -0.000000
-2.000074 -0.100039 0.000012 -1.000000 0.000000 -0.000000
-2.000074 -0.100039 10.000012 -1.000000 0.000000 -0.000000
-2.000074 0.000178 10.000012 -1.000000 0.000000 -0.000000
-0.000074 7.999961 0.000012 -0.997199 0.074792 -0.000000
-0.600074 0.000179 0.000012 -0.997199 0.074792 -0.000000
-0.600074 0.000178 10.000012 -0.997199 0.074792 -0.000000
-0.000074 7.999960 10.000012 -0.997199 0.074792 -0.000000
-0.000074 -0.000039 0.000012 1.000000 0.000000 0.000000
-0.000074 7.999961 0.000012 1.000000 0.000000 0.000000
-0.000074 7.999960 10.000012 1.000000 0.000000 0.000000
-0.000074 -0.000039 10.000012 1.000000 0.000000 0.000000
-2.000074 -0.100039 0.000012 0.000000 -1.000000 -0.000000
1.999926 -0.100039 0.000012 0.000000 -1.000000 -0.000000
1.999926 -0.100039 10.000012 0.000000 -1.000000 -0.000000
-2.000074 -0.100039 10.000012 0.000000 -1.000000 -0.000000
1.999926 -0.000039 0.000012 -0.000000 1.000000 0.000000
-0.000074 -0.000039 0.000012 -0.000000 1.000000 0.000000
-0.000074 -0.000039 10.000012 -0.000000 1.000000 0.000000
1.999926 -0.000039 10.000012 -0.000000 1.000000 0.000000
-0.600074 0.000179 0.000012 -0.000000 1.000000 0.000000
-2.000074 0.000178 0.000012 -0.000000 1.000000 0.000000
-2.000074 0.000178 10.000012 -0.000000 1.000000 0.000000
-0.600074 0.000178 10.000012 -0.000000 1.000000 0.000000
3 0 1 2
3 3 4 5
3 6 7 8
3 3 5 6
3 9 10 11
3 12 13 14
3 14 15 16
3 16 17 18
3 12 14 16
3 12 16 18
4 19 20 21 22
4 23 24 25 26
4 27 28 29 30
4 31 32 33 34
4 35 36 37 38
4 39 40 41 42
4 43 44 45 46
